<?xml version="1.0" encoding="utf-8"?>
<svg version="1.1" width="256px" height="256px" style="shape-rendering:geometricPrecision; text-rendering:geometricPrecision; image-rendering:optimizeQuality; fill-rule:evenodd; clip-rule:evenodd" xmlns="http://www.w3.org/2000/svg">
  <defs/>
  <g>
    <path style="opacity: 1; fill: rgb(1, 83, 121);" d="M -0.5,-0.5 C 84.8333,-0.5 170.167,-0.5 255.5,-0.5C 255.5,84.8333 255.5,170.167 255.5,255.5C 170.167,255.5 84.8333,255.5 -0.5,255.5C -0.5,170.167 -0.5,84.8333 -0.5,-0.5 Z"/>
  </g>
  <g>
    <path style="opacity:1" fill="#070c0f" d="M 126.5,42.5 C 127.263,44.3684 128.263,46.0351 129.5,47.5C 137.459,65.1603 137.459,82.827 129.5,100.5C 128.263,101.965 127.263,103.632 126.5,105.5C 124.275,109.898 121.441,113.898 118,117.5C 113.595,121.083 109.428,124.75 105.5,128.5C 104.041,128.433 102.708,128.766 101.5,129.5C 88.472,135.268 74.8054,137.101 60.5,135C 55.3493,133.951 50.516,132.117 46,129.5C 45.6174,130.056 45.1174,130.389 44.5,130.5C 43.713,128.896 42.3797,128.229 40.5,128.5C 38.406,125.578 35.7393,123.078 32.5,121C 11.8714,100.759 6.37138,76.926 16,49.5C 34.2684,15.736 61.7684,4.90268 98.5,17C 110.281,22.9534 119.614,31.4534 126.5,42.5 Z"/>
  </g>
  <g>
    <path style="opacity:1" fill="#141526" d="M 213.5,127.5 C 211.847,127.66 210.514,128.326 209.5,129.5C 191.606,137.052 173.606,137.385 155.5,130.5C 153.819,128.992 151.819,127.992 149.5,127.5C 141.193,122.025 134.36,115.025 129,106.5C 128.329,105.748 127.496,105.414 126.5,105.5C 127.263,103.632 128.263,101.965 129.5,100.5C 149.84,131.884 177.173,139.717 211.5,124C 235.776,107.183 244.276,84.3494 237,55.5C 221.421,21.631 195.587,9.79763 159.5,20C 146.449,25.8861 136.449,35.0528 129.5,47.5C 128.263,46.0351 127.263,44.3684 126.5,42.5C 132.221,36.276 138.221,30.1093 144.5,24C 161.64,12.1635 180.307,9.16355 200.5,15C 230.907,26.7479 245.073,48.9146 243,81.5C 240.149,101.479 230.316,116.812 213.5,127.5 Z"/>
  </g>
  <g>
    <path style="opacity:1" fill="#005278" d="M 60.5,16.5 C 95.4529,12.878 118.62,27.5446 130,60.5C 134.778,90.4422 123.945,112.609 97.5,127C 63.3485,138.621 37.5151,128.788 20,97.5C 8.50952,57.8141 22.0095,30.8141 60.5,16.5 Z"/>
  </g>
  <g>
    <path style="opacity:1" fill="#618a47" d="M 129.5,100.5 C 137.459,82.827 137.459,65.1603 129.5,47.5C 136.449,35.0528 146.449,25.8861 159.5,20C 195.587,9.79763 221.421,21.631 237,55.5C 244.276,84.3494 235.776,107.183 211.5,124C 177.173,139.717 149.84,131.884 129.5,100.5 Z"/>
  </g>
  <g>
    <path style="opacity: 1; fill: rgb(1, 83, 121);" d="M 126.5,105.5 C 127.496,105.414 128.329,105.748 129,106.5C 134.36,115.025 141.193,122.025 149.5,127.5C 141.188,133.812 133.854,141.146 127.5,149.5C 124.238,144.898 120.572,140.565 116.5,136.5C 113.356,133.01 109.69,130.343 105.5,128.5C 109.428,124.75 113.595,121.083 118,117.5C 121.441,113.898 124.275,109.898 126.5,105.5 Z"/>
  </g>
  <g>
    <path style="opacity:1" fill="#130c0d" d="M 149.5,127.5 C 151.819,127.992 153.819,128.992 155.5,130.5C 143.83,135.333 135.163,143.499 129.5,155C 137.438,172.493 137.438,189.993 129.5,207.5C 128.767,209.294 127.767,210.961 126.5,212.5C 109.858,237.892 86.5246,247.392 56.5,241C 23.5349,228.589 8.70152,204.755 12,169.5C 15.5981,151.607 25.0981,137.941 40.5,128.5C 42.3797,128.229 43.713,128.896 44.5,130.5C 19.2734,146.667 10.44,169.333 18,198.5C 30.1762,229.013 52.6762,242.18 85.5,238C 121.749,226.016 136.249,201.183 129,163.5C 123.845,148.821 114.678,137.487 101.5,129.5C 102.708,128.766 104.041,128.433 105.5,128.5C 109.69,130.343 113.356,133.01 116.5,136.5C 120.572,140.565 124.238,144.898 127.5,149.5C 133.854,141.146 141.188,133.812 149.5,127.5 Z"/>
  </g>
  <g>
    <path style="opacity:1" fill="#13110c" d="M 213.5,127.5 C 244.668,150.513 251.501,179.513 234,214.5C 213.983,240.969 188.149,248.803 156.5,238C 144.98,232.148 135.647,223.815 128.5,213C 127.906,212.536 127.239,212.369 126.5,212.5C 127.767,210.961 128.767,209.294 129.5,207.5C 147.585,236.475 172.919,245.309 205.5,234C 236.167,216.682 246,191.182 235,157.5C 229.075,145.746 220.575,136.412 209.5,129.5C 210.514,128.326 211.847,127.66 213.5,127.5 Z"/>
  </g>
  <g>
    <path style="opacity:1" fill="#b23e61" d="M 101.5,129.5 C 114.678,137.487 123.845,148.821 129,163.5C 136.249,201.183 121.749,226.016 85.5,238C 52.6762,242.18 30.1762,229.013 18,198.5C 10.44,169.333 19.2734,146.667 44.5,130.5C 45.1174,130.389 45.6174,130.056 46,129.5C 50.516,132.117 55.3493,133.951 60.5,135C 74.8054,137.101 88.472,135.268 101.5,129.5 Z"/>
  </g>
  <g>
    <path style="opacity:1" fill="#f1c576" d="M 209.5,129.5 C 220.575,136.412 229.075,145.746 235,157.5C 246,191.182 236.167,216.682 205.5,234C 172.919,245.309 147.585,236.475 129.5,207.5C 137.438,189.993 137.438,172.493 129.5,155C 135.163,143.499 143.83,135.333 155.5,130.5C 173.606,137.385 191.606,137.052 209.5,129.5 Z"/>
  </g>
</svg>